<?xml version="1.0" standalone="no"?>
<!DOCTYPE svg PUBLIC "-//W3C//DTD SVG 20010904//EN"
 "http://www.w3.org/TR/2001/REC-SVG-20010904/DTD/svg10.dtd">
<svg version="1.0" xmlns="http://www.w3.org/2000/svg"
 width="631.000000pt" height="529.000000pt" viewBox="0 0 631.000000 529.000000"
 preserveAspectRatio="xMidYMid meet">

<g transform="translate(0.000000,529.000000) scale(0.100000,-0.100000)"
fill="#000000" stroke="none">
<path d="M2086 5059 l-26 -20 0 -180 0 -179 410 0 410 0 0 200 0 200 -384 0
c-373 0 -384 -1 -410 -21z"/>
<path d="M3080 4880 l0 -200 620 0 620 0 0 169 c0 168 0 170 -26 200 l-26 31
-594 0 -594 0 0 -200z"/>
<path d="M1675 4436 c-32 -32 -37 -84 -33 -361 l3 -230 305 0 305 0 3 308 2
307 -280 0 -281 0 -24 -24z"/>
<path d="M2460 4171 c0 -159 3 -296 6 -305 5 -14 42 -16 310 -16 l304 0 0 305
0 305 -310 0 -310 0 0 -289z"/>
<path d="M3292 4153 l3 -308 200 0 200 0 3 308 2 307 -205 0 -205 0 2 -307z"/>
<path d="M3912 4153 l3 -308 405 0 405 0 0 282 c0 281 0 283 -23 305 l-23 23
-384 3 -385 3 2 -308z"/>
<path d="M1640 3348 c1 -161 5 -313 9 -338 10 -51 50 -90 91 -89 14 0 133 24
265 53 l240 53 7 84 c3 46 6 184 7 307 l1 222 -310 0 -310 0 0 -292z"/>
<path d="M2460 3373 c0 -148 4 -274 9 -281 6 -11 25 -10 97 7 49 11 175 39
279 62 105 23 200 45 213 50 22 8 22 10 22 219 l0 210 -310 0 -310 0 0 -267z"/>
<path d="M3292 3429 c3 -115 7 -212 9 -214 6 -6 360 -85 380 -85 18 0 19 13
19 255 l0 255 -206 0 -207 0 5 -211z"/>
<path d="M3912 3358 l3 -283 325 -72 c423 -95 409 -93 451 -55 l34 30 3 331 3
331 -411 0 -410 0 2 -282z"/>
<path d="M2640 2906 c-278 -63 -640 -144 -805 -180 -533 -119 -590 -136 -601
-183 -9 -36 15 -103 291 -798 263 -661 292 -742 276 -758 -20 -20 -218 -16
-262 6 -20 10 -102 81 -183 157 -188 179 -269 220 -428 220 -66 0 -108 -38
-108 -99 0 -63 29 -88 123 -106 42 -8 94 -24 116 -34 21 -11 102 -80 180 -154
189 -179 269 -217 444 -217 165 1 238 38 425 214 191 180 192 181 317 181 79
0 108 -4 140 -20 21 -10 101 -79 176 -152 142 -137 198 -174 308 -207 66 -19
197 -21 266 -2 108 29 164 67 337 233 65 62 132 120 150 130 48 26 218 25 271
-1 21 -10 91 -69 155 -130 148 -141 184 -169 268 -208 58 -27 81 -32 171 -36
193 -9 270 29 481 231 71 67 145 131 165 141 21 9 68 23 105 30 107 20 132 41
132 110 0 23 -9 45 -26 65 -22 27 -33 31 -72 31 -169 0 -251 -41 -432 -216
-169 -163 -206 -184 -327 -184 -83 0 -133 11 -133 30 0 20 86 242 374 967 85
215 168 428 183 472 26 75 27 83 13 109 -8 15 -31 34 -50 44 -64 30 -1842 429
-1907 427 -15 0 -255 -51 -533 -113z m606 -319 c19 -16 29 -38 35 -73 4 -27 8
-383 8 -791 l1 -743 -23 -5 c-12 -3 -56 -5 -97 -3 -74 3 -75 3 -81 33 -12 54
-10 1524 2 1546 14 28 68 59 101 59 15 0 39 -10 54 -23z"/>
<path d="M855 936 c-30 -30 -40 -68 -29 -108 13 -44 49 -66 125 -77 95 -13
134 -38 266 -164 212 -202 259 -228 423 -235 200 -8 271 25 474 218 170 163
184 171 296 178 126 7 160 -11 325 -169 216 -208 246 -222 450 -223 126 -1
145 1 190 22 69 32 141 88 271 213 148 141 172 154 294 154 125 0 145 -11 319
-178 75 -73 160 -144 187 -159 70 -38 155 -58 246 -58 178 0 248 35 442 218
77 73 157 142 178 152 20 11 69 25 110 32 114 18 155 76 113 158 -26 51 -73
61 -186 40 -113 -21 -183 -66 -338 -214 -169 -163 -196 -178 -317 -178 -116 0
-146 17 -314 178 -185 177 -278 224 -445 224 -157 0 -252 -49 -436 -225 -169
-161 -199 -178 -315 -177 -115 0 -144 16 -315 177 -153 144 -229 193 -327 214
-115 24 -260 5 -354 -46 -27 -15 -115 -90 -196 -167 -172 -163 -198 -178 -316
-178 -119 -1 -148 15 -315 176 -153 146 -231 196 -340 216 -92 17 -139 13
-166 -14z"/>
</g>
</svg>
